<svg xmlns="http://www.w3.org/2000/svg" viewBox="0 0 32 32" fill="none">
  <rect width="32" height="32" rx="8" fill="#25d366"/>
  <path d="M16 6C10.477 6 6 10.477 6 16c0 1.89.523 3.66 1.435 5.174L6 26l4.98-1.406A9.944 9.944 0 0016 26c5.523 0 10-4.477 10-10S21.523 6 16 6z" fill="white"/>
  <path d="M12.5 13c-.3 0-1 .25-1 1.25 0 1 .75 2.5 2.25 4s2.75 2 3.75 2 1-.75 1-1c0-.25-.75-1-1.25-1.25s-.75-.25-1 0-.5.5-.5.5-.75-.5-1.5-1.25S13 15.75 13 15.5s.25-.25.5-.5.5-.5.25-1-.75-1.5-.75-1.5z" fill="#25d366"/>
</svg>
