<svg width="1677" height="940" viewBox="0 0 1677 940" fill="none" xmlns="http://www.w3.org/2000/svg">
  <defs>
    <pattern id="waPattern" width="42" height="42" patternUnits="userSpaceOnUse">
      <path d="M7 11c5-6 14 0 9 7-4 5-10 1-9-7Zm26 19c-3 5-11 4-13-1-3-7 7-12 12-7 2 2 3 5 1 8Z" stroke="white" stroke-opacity=".16" stroke-width="1.4"/>
      <path d="M21 5v8M17 9h8M7 31h10M32 8h5" stroke="white" stroke-opacity=".13" stroke-width="1.5" stroke-linecap="round"/>
    </pattern>
    <filter id="softShadow" x="-20%" y="-20%" width="140%" height="140%">
      <feDropShadow dx="0" dy="16" stdDeviation="18" flood-color="#0f172a" flood-opacity=".18"/>
    </filter>
    <linearGradient id="chatBg" x1="877" y1="130" x2="1666" y2="826" gradientUnits="userSpaceOnUse">
      <stop stop-color="#efe2d5"/>
      <stop offset="1" stop-color="#f8efe7"/>
    </linearGradient>
    <linearGradient id="building" x1="0" y1="0" x2="0" y2="112" gradientUnits="userSpaceOnUse">
      <stop stop-color="#1da4f2"/>
      <stop offset=".54" stop-color="#dff4ff"/>
      <stop offset=".55" stop-color="#74a543"/>
      <stop offset="1" stop-color="#a7c957"/>
    </linearGradient>
    <linearGradient id="bubble" x1="1254" y1="150" x2="1650" y2="790" gradientUnits="userSpaceOnUse">
      <stop stop-color="#dbffd1"/>
      <stop offset="1" stop-color="#d5f7c8"/>
    </linearGradient>
  </defs>

  <rect x="4" y="4" width="1669" height="932" rx="26" fill="#fff" stroke="#e5e7eb" stroke-width="4"/>

  <g clip-path="url(#clipMain)">
    <rect x="4" y="4" width="284" height="932" fill="#32bf50"/>
    <rect x="4" y="4" width="284" height="932" fill="url(#waPattern)"/>

    <g filter="url(#softShadow)">
      <rect x="64" y="140" width="188" height="524" rx="28" fill="white" stroke="#0f172a" stroke-width="4"/>
      <rect x="78" y="158" width="160" height="58" rx="16" fill="white"/>
      <circle cx="96" cy="174" r="15" fill="#050505"/>
      <text x="88" y="179" fill="#f5bd1d" font-family="Arial, sans-serif" font-size="12" font-weight="700">AB</text>
      <text x="120" y="178" fill="#111827" font-family="Arial, sans-serif" font-size="15" font-weight="700">Avenue Brokers</text>
      <circle cx="212" cy="173" r="6" fill="#22c55e"/>
      <path d="m209 173 2 2 4-5" stroke="white" stroke-width="1.5" stroke-linecap="round" stroke-linejoin="round"/>

      <rect x="30" y="222" width="188" height="220" rx="10" fill="white" stroke="#d8dee7"/>
      <rect x="40" y="232" width="168" height="109" rx="5" fill="url(#building)"/>
      <rect x="69" y="295" width="96" height="24" fill="#e9e2d5"/>
      <rect x="78" y="276" width="26" height="43" fill="#f8fafc"/>
      <rect x="111" y="268" width="35" height="51" fill="#f8fafc"/>
      <rect x="151" y="282" width="29" height="37" fill="#f8fafc"/>
      <circle cx="81" cy="310" r="18" fill="#4f8a35"/>
      <text x="40" y="365" fill="#111827" font-family="Arial, sans-serif" font-size="14">
        <tspan x="40" dy="0">Hey Vikas, we found a perfect</tspan>
        <tspan x="40" dy="20">2BHK Flat for you in Magarpatta</tspan>
        <tspan x="40" dy="20">City</tspan>
      </text>
      <line x1="30" y1="404" x2="218" y2="404" stroke="#edf0f5"/>
      <text x="96" y="428" fill="#3b82f6" font-family="Arial, sans-serif" font-size="14" font-weight="700">See Details</text>

      <rect x="48" y="486" width="222" height="144" rx="13" fill="#d9ffd7"/>
      <text x="62" y="522" fill="#111827" font-family="Arial, sans-serif" font-size="14">
        <tspan x="62" dy="0">Send automated messages to your</tspan>
        <tspan x="62" dy="19">customers with links, payments, chat</tspan>
        <tspan x="62" dy="19">options, automated flows and more.</tspan>
      </text>
      <line x1="62" y1="582" x2="256" y2="582" stroke="#8bd491"/>
      <text x="101" y="611" fill="#3b82f6" font-family="Arial, sans-serif" font-size="14" font-weight="700">+ Schedule a Message</text>
    </g>

    <rect x="288" y="4" width="262" height="932" rx="0" fill="#081827"/>
    <rect x="288" y="4" width="262" height="932" fill="url(#navGlow)" opacity=".18"/>
    <rect x="308" y="24" width="46" height="54" rx="14" fill="#22c55e"/>
    <path d="M331 38c-8 0-14 6-14 14 0 3 1 6 3 9l-2 8 8-2c2 1 4 2 6 2 8 0 14-6 14-14s-7-17-15-17Z" stroke="white" stroke-width="3" stroke-linejoin="round"/>
    <text x="368" y="47" fill="white" font-family="Arial, sans-serif" font-size="17" font-weight="700">Finlec Technologies</text>
    <text x="368" y="72" fill="#cbd5e1" font-family="Arial, sans-serif" font-size="13">WHATSAPP BUSINESS SUITE</text>
    <rect x="304" y="101" width="230" height="64" rx="10" fill="#142337"/>
    <text x="320" y="128" fill="white" font-family="Arial, sans-serif" font-size="16" font-weight="700">Finlec Technologies</text>
    <text x="320" y="151" fill="#cbd5e1" font-family="Arial, sans-serif" font-size="13">+91 99607 56292</text>

    <rect x="303" y="197" width="232" height="50" rx="13" fill="#124932"/>
    <circle cx="323" cy="222" r="8" fill="#22c55e"/>
    <text x="346" y="229" fill="#31ed85" font-family="Arial, sans-serif" font-size="16" font-weight="700">Chats</text>
    <g fill="#f8fafc" font-family="Arial, sans-serif" font-size="16" font-weight="600">
      <text x="344" y="281">Contacts</text>
      <text x="344" y="331">Templates</text>
      <text x="344" y="382">Quick Replies</text>
      <text x="344" y="433">Auto Replies</text>
      <text x="344" y="484">Flows</text>
      <text x="344" y="534">Campaigns</text>
      <text x="344" y="585">Drip Campaigns</text>
      <text x="344" y="636">Teams</text>
      <text x="344" y="687">Usage</text>
      <text x="344" y="738">Analytics</text>
      <text x="344" y="789">Settings</text>
    </g>
    <g stroke="#f8fafc" stroke-width="3" stroke-linecap="round" opacity=".95">
      <path d="M316 276h16M320 268v16M328 268v16"/>
      <path d="M317 320h14v18h-14zM321 326h6"/>
      <path d="M323 369l-8 16h9l-5 13 13-18h-9l5-11z"/>
      <path d="M315 425h17v12h-9l-5 5v-5h-3z"/>
      <path d="M323 472v18M315 481h16M318 474l5 7 6-7"/>
      <path d="M315 531h9l10-8v22l-10-8h-9z"/>
      <path d="M323 576c7 8 7 17 0 25-7-8-7-17 0-25Z"/>
      <path d="M316 632h16M320 624v16M328 624v16"/>
      <path d="M316 676h17v17h-17zM320 681h9M320 687h6"/>
      <path d="M316 742v-14M324 742v-23M332 742v-32"/>
      <path d="M324 781a9 9 0 1 0 0 18 9 9 0 0 0 0-18Z"/>
    </g>
    <line x1="288" y1="824" x2="550" y2="824" stroke="#203143"/>
    <circle cx="323" cy="875" r="23" fill="#22c55e"/>
    <text x="318" y="883" fill="white" font-family="Arial, sans-serif" font-size="20" font-weight="700">F</text>
    <text x="355" y="869" fill="white" font-family="Arial, sans-serif" font-size="16" font-weight="700">Finlec Technologies</text>
    <text x="355" y="895" fill="#cbd5e1" font-family="Arial, sans-serif" font-size="13">ADMIN</text>

    <rect x="550" y="4" width="330" height="932" fill="white"/>
    <rect x="568" y="25" width="290" height="52" rx="18" fill="#f8fafc"/>
    <path d="m588 48 11 11M603 44a12 12 0 1 1-24 0 12 12 0 0 1 24 0Z" stroke="#64748b" stroke-width="2"/>
    <text x="608" y="57" fill="#64748b" font-family="Arial, sans-serif" font-size="16">Search contacts...</text>
    <rect x="550" y="102" width="330" height="86" fill="#ecfdf5"/>
    <rect x="550" y="102" width="4" height="86" fill="#22c55e"/>
    <circle cx="592" cy="145" r="27" fill="#22c55e"/>
    <text x="585" y="153" fill="white" font-family="Arial, sans-serif" font-size="18" font-weight="700">o</text>
    <text x="626" y="138" fill="#111827" font-family="Arial, sans-serif" font-size="18" font-weight="700">omkar</text>
    <text x="810" y="135" fill="#64748b" font-family="Arial, sans-serif" font-size="13">Yesterday</text>
    <text x="626" y="164" fill="#64748b" font-family="Arial, sans-serif" font-size="14">Hello Welcome to Finlec Technologies! W...</text>

    <rect x="880" y="4" width="793" height="126" fill="white"/>
    <line x1="880" y1="130" x2="1673" y2="130" stroke="#e5e7eb"/>
    <circle cx="925" cy="51" r="27" fill="#22c55e"/>
    <text x="918" y="59" fill="white" font-family="Arial, sans-serif" font-size="18" font-weight="700">o</text>
    <text x="968" y="45" fill="#111827" font-family="Arial, sans-serif" font-size="20" font-weight="700">omkar</text>
    <text x="968" y="72" fill="#64748b" font-family="Arial, sans-serif" font-size="16">7350036456</text>
    <rect x="969" y="86" width="126" height="31" rx="15.5" fill="#e8f8ee"/>
    <text x="984" y="106" fill="#047857" font-family="Arial, sans-serif" font-size="13" font-weight="700">Team: Unassigned</text>
    <rect x="1105" y="86" width="98" height="31" rx="15.5" fill="#eaf2ff"/>
    <text x="1120" y="106" fill="#2563eb" font-family="Arial, sans-serif" font-size="13" font-weight="700">Owner: None</text>
    <rect x="1544" y="30" width="104" height="44" rx="13" fill="white" stroke="#22c55e"/>
    <text x="1562" y="57" fill="#16a34a" font-family="Arial, sans-serif" font-size="14" font-weight="700">Assign Chat</text>

    <rect x="880" y="130" width="793" height="696" fill="url(#chatBg)"/>
    <g filter="url(#softShadow)">
      <rect x="1263" y="151" width="388" height="108" rx="14" fill="url(#bubble)" stroke="#c9efbe"/>
      <text x="1283" y="192" fill="#111827" font-family="Arial, sans-serif" font-size="16">Buttons:</text>
      <circle cx="1287" cy="221" r="4" fill="#16a34a"/>
      <text x="1302" y="227" fill="#111827" font-family="Arial, sans-serif" font-size="16">View Website</text>
      <text x="1572" y="244" fill="#64748b" font-family="Arial, sans-serif" font-size="12">05:55 PM</text>
      <path d="m1628 239 4 4 8-10" stroke="#94a3b8" stroke-width="1.5" stroke-linecap="round"/>

      <rect x="1263" y="268" width="388" height="522" rx="14" fill="url(#bubble)" stroke="#c9efbe"/>
      <text x="1279" y="298" fill="#047857" font-family="Arial, sans-serif" font-size="13" font-weight="700">Sent by Finlec Technologies</text>
      <text x="1279" y="328" fill="#111827" font-family="Arial, sans-serif" font-size="16">Hello</text>
      <text x="1279" y="378" fill="#111827" font-family="Arial, sans-serif" font-size="16">Welcome to Finlec Technologies!</text>
      <text x="1279" y="429" fill="#111827" font-family="Arial, sans-serif" font-size="16">
        <tspan x="1279" dy="0">We're excited to assist you with smart financial solutions</tspan>
        <tspan x="1279" dy="27">tailored to your needs. Whether you're looking for</tspan>
        <tspan x="1279" dy="27">investment guidance, mutual fund support, or financial</tspan>
        <tspan x="1279" dy="27">planning, our experts are here to help you every step of</tspan>
        <tspan x="1279" dy="27">the way.</tspan>
      </text>
      <text x="1279" y="615" fill="#111827" font-family="Arial, sans-serif" font-size="16">
        <tspan x="1279" dy="0">To get started, please let us know how we can assist you</tspan>
        <tspan x="1279" dy="27">today.</tspan>
      </text>
      <text x="1279" y="667" fill="#111827" font-family="Arial, sans-serif" font-size="16">Thank you for choosing Finlec Technologies!</text>
      <text x="1279" y="719" fill="#111827" font-family="Arial, sans-serif" font-size="16">Buttons:</text>
      <circle cx="1287" cy="746" r="4" fill="#16a34a"/>
      <text x="1302" y="752" fill="#111827" font-family="Arial, sans-serif" font-size="16">View Website</text>
      <text x="1572" y="774" fill="#64748b" font-family="Arial, sans-serif" font-size="12">06:14 PM</text>
      <path d="m1628 769 4 4 8-10" stroke="#94a3b8" stroke-width="1.5" stroke-linecap="round"/>
    </g>

    <rect x="880" y="826" width="793" height="110" fill="white"/>
    <path d="M908 883h13l-10 19h16l-25 32 8-25h-13l11-26Z" fill="#475569"/>
    <rect x="942" y="853" width="646" height="52" rx="20" fill="#f8fafc"/>
    <text x="958" y="885" fill="#64748b" font-family="Arial, sans-serif" font-size="16">Type a message... (/ for quick replies)</text>
    <circle cx="1622" cy="879" r="26" fill="#16a34a"/>
    <path d="M1612 866v26l24-13-24-13Z" fill="white"/>
  </g>

  <defs>
    <linearGradient id="navGlow" x1="288" y1="4" x2="550" y2="936" gradientUnits="userSpaceOnUse">
      <stop stop-color="#1e293b"/>
      <stop offset="1" stop-color="#020617"/>
    </linearGradient>
    <clipPath id="clipMain">
      <rect x="4" y="4" width="1669" height="932" rx="26"/>
    </clipPath>
  </defs>
</svg>
